<?xml version="1.0" encoding="UTF-8"?>
<svg width="1024px" height="1024px" viewBox="0 0 1024 1024" version="1.1" xmlns="http://www.w3.org/2000/svg" xmlns:xlink="http://www.w3.org/1999/xlink">
    <title>ordnews</title>
    <g id="ordnews" stroke="none" stroke-width="1" fill="none" fill-rule="evenodd">
        <rect fill="#000000" x="0" y="0" width="1024" height="1024"></rect>
        <rect id="bg" fill="#000000" x="1" y="1" width="1024" height="1024"></rect>
        <circle id="3" fill="#000000" cx="513" cy="513" r="512"></circle>
        <path d="M735.383244,538.931288 C740.984205,492.443318 731.968214,445.434147 709.556594,404.321543 C687.144974,363.20116 652.520149,330.147715 610.411818,309.665315 C568.303488,289.182914 520.928699,282.352854 474.744114,290.108628 C428.567309,297.864403 386.015569,319.793718 352.90767,352.901616 C319.791993,386.017294 297.862677,428.561254 290.114682,474.745839 C282.358908,520.922645 289.188968,568.305213 309.671369,610.413543 C330.14599,652.521874 363.199435,687.146699 404.312039,709.558319 C445.432422,731.969939 492.441593,740.98593 538.929563,735.384969 C521.146514,778.737958 512.006058,825.140358 512.006058,872.001725 C440.772734,872.001725 371.227478,850.904775 311.997323,811.332435 C252.774947,771.752315 206.668154,715.571572 179.410147,649.768068 C152.15214,583.956785 145.026474,511.634386 158.919967,441.770186 C172.82124,371.913765 207.080447,307.813886 257.450193,257.444139 C307.812161,207.082172 371.904261,172.822965 441.768461,158.921692 C511.632661,145.028199 583.962839,152.146086 649.766343,179.411872 C715.577626,206.669879 771.75059,252.768893 811.33071,311.999048 C850.90305,371.221424 872,440.774459 872,512 C825.138632,512 778.736233,521.148239 735.383244,538.931288 Z" id="2" fill="#FFFFFF"></path>
        <path d="M871.999222,512.00156 C776.526187,512.00156 684.958266,549.932508 617.443357,617.439637 C549.928449,684.954545 512.00528,776.522467 512.00528,871.995502 C631.998075,752.002707 751.998648,632.002134 871.999222,512.00156 Z" id="1" fill="#FF8B00"></path>
    </g>
</svg>