<?xml version="1.0" encoding="UTF-8"?>
<svg width="1920px" height="1920px" viewBox="0 0 1920 1920" version="1.1" xmlns="http://www.w3.org/2000/svg" xmlns:xlink="http://www.w3.org/1999/xlink">
    <title>ordim</title>
    <g id="ordim" stroke="none" stroke-width="1" fill="none" fill-rule="evenodd">
        <rect id="Rectangle" fill="#000000" x="0" y="0" width="1920" height="1920"></rect>
        <circle id="Oval" fill="#000000" cx="960" cy="960" r="960"></circle>
        <g id="Group-15" transform="translate(55.000000, 55.000000)">
            <path d="M871.331691,1223.30183 C783.459922,1213.97184 704.674905,1277.64573 695.344955,1365.5179 C686.026059,1453.39008 749.699652,1532.18652 837.560367,1541.50546 C1107.26667,1570.12554 1365.71956,1425.6433 1482.59818,1180.90785 C1599.47681,936.172391 1549.41124,644.333735 1357.63876,452.560363 C1165.85522,260.786992 874.028975,210.710131 629.294656,327.600357 C384.560338,444.479528 240.06771,702.93361 268.687664,972.630114 C259.368768,884.757937 323.042361,805.972554 410.91413,796.64256 C498.774845,787.323622 577.570916,850.99751 586.900867,938.869687 C572.585363,804.015908 644.826149,674.788867 767.198836,616.343754 C889.560468,557.909696 1035.47912,582.937072 1131.36536,678.823758 C1227.2516,774.721498 1252.28991,920.629771 1193.84507,1043.00303 C1135.41129,1165.36523 1006.18484,1237.60635 871.331691,1223.30183 Z" id="Stroke-15" fill="#FF8B00" transform="translate(905.096680, 905.096680) rotate(-45.000000) translate(-905.096680, -905.096680) "></path>
            <path d="M762.512063,1261.53225 C753.193168,1173.66007 674.397096,1109.98618 586.525327,1119.31617 C498.653558,1128.63511 434.979965,1207.43155 444.309915,1295.30373 C453.639865,1383.16485 532.424882,1446.83874 620.296651,1437.5198 C708.168421,1428.18981 771.842014,1349.40442 762.512063,1261.53225 Z" id="Stroke-1" fill="#FFFFFF" transform="translate(603.410989, 1278.416974) rotate(-45.000000) translate(-603.410989, -1278.416974) "></path>
        </g>
    </g>
</svg>