<?xml version="1.0" encoding="UTF-8"?>
<svg width="512px" height="512px" viewBox="0 0 512 512" version="1.1" xmlns="http://www.w3.org/2000/svg" xmlns:xlink="http://www.w3.org/1999/xlink">
    <title>sats icon-512</title>
    <g id="sats-icon-512" stroke="none" stroke-width="1" fill="none" fill-rule="evenodd">
        <g id="bitcoin-btc-logo-copy" transform="translate(-0.000000, -0.000000)" fill-rule="nonzero">
            <path d="M504.340305,317.927849 C470.145796,455.07218 331.225284,538.535506 194.049289,504.336076 C56.9308592,470.145405 -26.5418369,331.231728 7.66768951,194.098659 C41.8471812,56.9393121 180.767693,-26.5302707 317.901139,7.66040002 C455.067124,41.8510708 538.534814,180.779763 504.336551,317.930351 L504.339053,317.927849 L504.340305,317.927849 Z" id="Combined-Shape" fill="#F7931A"></path>
            <path d="M250,106 L249.999564,146.376636 C255.071481,146.125545 260.369984,146 265.895075,146 C268.632722,146 271.334502,146.028565 274.000416,146.085695 L274,106 L302,106 L302.001388,147.879866 C306.02899,148.328593 309.955722,148.857654 313.781585,149.467049 C328.292648,151.778415 342.116345,155.245463 355.252677,159.868195 L355.252677,159.868195 L340.130621,191.386819 L338.544756,190.904923 C327.423815,187.568117 315.885342,184.997135 303.929336,183.191977 C291.403997,181.30086 279.795146,180.355301 269.102784,180.355301 C250.773019,180.355301 237.178444,182.561605 228.319058,186.974212 C219.459672,191.386819 215.029979,196.95511 215.029979,203.679083 C215.029979,208.511939 216.710207,212.661891 220.070664,216.12894 C223.431121,219.595989 227.860814,222.590258 233.359743,225.111748 C238.858672,227.633238 245.121342,229.839542 252.147752,231.730659 C259.174161,233.621777 266.353319,235.407832 273.685225,237.088825 C284.683084,239.610315 295.83369,242.499522 307.137045,245.756447 C318.4404,249.013372 328.674518,253.163324 337.8394,258.206304 C347.004283,263.249284 354.488936,269.395415 360.293362,276.644699 C366.097787,283.893983 369,292.771729 369,303.277937 C369,313.994269 366.021413,323.239733 360.06424,331.014327 C354.107066,338.788921 346.01142,345.30277 335.777302,350.555874 C326.193255,355.475301 314.934718,359.196922 302.00169,361.720737 L302,406 L274,406 L274.001396,365.309348 C267.398232,365.769783 260.571928,366 253.522484,366 C252.341085,366 251.166811,365.995275 249.999661,365.985825 L250,406 L222,406 L221.999961,364.739349 C213.733644,364.03575 205.911388,363.037628 198.533191,361.744986 C182.341899,358.908309 167.830835,354.968481 155,349.925501 L155,349.925501 L170.122056,316.515759 L171.226679,316.933906 C181.951458,320.955683 194.032215,324.388411 207.468951,327.232092 C221.369022,330.17383 235.192719,331.644699 248.940043,331.644699 C266.353319,331.644699 281.017131,329.280802 292.931478,324.553009 C304.845824,319.825215 310.802998,312.5234 310.802998,302.647564 C310.802998,297.814709 309.046395,293.717287 305.533191,290.355301 C302.019986,286.993314 297.284797,284.051576 291.327623,281.530086 C285.37045,279.008596 278.649536,276.854823 271.164882,275.068768 C263.680228,273.282713 255.966453,271.444126 248.023555,269.553009 C238.553176,267.451767 228.471806,264.877746 217.779443,261.830946 C207.087081,258.784145 197.234832,254.791786 188.222698,249.853868 C179.210564,244.91595 171.72591,238.769819 165.768737,231.415473 C159.811563,224.061127 156.832976,215.025788 156.832976,204.309456 C156.832976,196.324737 158.895075,188.760267 163.019272,181.616046 C167.143469,174.471824 173.635261,168.273161 182.494647,163.020057 C191.354033,157.766953 202.657388,153.617001 216.404711,150.570201 C218.221599,150.167526 220.086512,149.791461 221.99945,149.442005 L222,106 L250,106 Z" id="Combined-Shape" fill="#FFFFFF" transform="translate(262.000000, 256.000000) rotate(-345.000000) translate(-262.000000, -256.000000) "></path>
        </g>
    </g>
</svg>